<svg version="1.1" viewBox="0.0 0.0 96.0 96.0" fill="none" stroke="none" stroke-linecap="square" stroke-miterlimit="10" xmlns:xlink="http://www.w3.org/1999/xlink" xmlns="http://www.w3.org/2000/svg"><clipPath id="p.0"><path d="m0 0l96.0 0l0 96.0l-96.0 0l0 -96.0z" clip-rule="nonzero"/></clipPath><g clip-path="url(#p.0)"><path fill="#000000" fill-opacity="0.0" d="m0 0l96.0 0l0 96.0l-96.0 0z" fill-rule="evenodd"/><path fill="#000000" fill-opacity="0.0" d="m9.826772 10.582677l79.74803 0l0 82.01575l-79.74803 0z" fill-rule="evenodd"/><path fill="#000000" d="m20.63927 36.120277l0 -18.421875l3.34375 0l0 7.796875l8.53125 0l0 -7.796875l3.34375 0l0 18.421875l-3.34375 0l0 -7.828125l-8.53125 0l0 7.828125l-3.34375 0zm35.31189 -9.203125q0 2.96875 -1.109375 5.09375q-1.109375 2.109375 -3.03125 3.234375q-1.90625 1.125 -4.328125 1.125q-2.421875 0 -4.328125 -1.125q-1.90625 -1.125 -3.03125 -3.234375q-1.109375 -2.125 -1.109375 -5.09375q0 -2.984375 1.109375 -5.09375q1.125 -2.125 3.03125 -3.25q1.90625 -1.125 4.328125 -1.125q2.421875 0 4.328125 1.125q1.921875 1.125 3.03125 3.25q1.109375 2.109375 1.109375 5.09375zm-3.359375 0q0 -2.109375 -0.65625 -3.546875q-0.640625 -1.4375 -1.796875 -2.171875q-1.15625 -0.75 -2.65625 -0.75q-1.5 0 -2.65625 0.75q-1.140625 0.734375 -1.796875 2.171875q-0.65625 1.4375 -0.65625 3.546875q0 2.09375 0.65625 3.53125q0.65625 1.4375 1.796875 2.1875q1.15625 0.734375 2.65625 0.734375q1.5 0 2.65625 -0.734375q1.15625 -0.75 1.796875 -2.1875q0.65625 -1.4375 0.65625 -3.53125z" fill-rule="nonzero"/><path fill="#000000" d="m36.404896 44.589153l-3.359375 0q-0.140625 -0.828125 -0.53125 -1.46875q-0.390625 -0.640625 -0.96875 -1.09375q-0.5625 -0.453125 -1.296875 -0.671875q-0.734375 -0.234375 -1.578125 -0.234375q-1.5 0 -2.671875 0.75q-1.15625 0.75 -1.8125 2.203125q-0.65625 1.4375 -0.65625 3.515625q0 2.109375 0.65625 3.5625q0.671875 1.4375 1.828125 2.171875q1.15625 0.71875 2.640625 0.71875q0.828125 0 1.546875 -0.21875q0.734375 -0.21875 1.3125 -0.640625q0.578125 -0.4375 0.96875 -1.0625q0.40625 -0.640625 0.5625 -1.4375l3.359375 0.015625q-0.1875 1.3125 -0.8125 2.46875q-0.625 1.140625 -1.640625 2.015625q-1.0 0.875 -2.34375 1.375q-1.34375 0.484375 -3.0 0.484375q-2.421875 0 -4.328125 -1.125q-1.90625 -1.125 -3.015625 -3.234375q-1.09375 -2.125 -1.09375 -5.09375q0 -2.984375 1.109375 -5.09375q1.109375 -2.125 3.015625 -3.25q1.90625 -1.125 4.3125 -1.125q1.546875 0 2.859375 0.4375q1.328125 0.421875 2.359375 1.265625q1.03125 0.828125 1.703125 2.03125q0.671875 1.1875 0.875 2.734375z" fill-rule="nonzero"/><path fill="#000000" d="m20.63927 77.46428l0 -18.421879l3.34375 0l0 7.796879l8.53125 0l0 -7.796879l3.34375 0l0 18.421879l-3.34375 0l0 -7.828125l-8.53125 0l0 7.828125l-3.34375 0zm35.31189 -9.203125q0 2.96875 -1.109375 5.09375q-1.109375 2.109375 -3.03125 3.234375q-1.90625 1.125 -4.328125 1.125q-2.421875 0 -4.328125 -1.125q-1.90625 -1.125 -3.03125 -3.234375q-1.109375 -2.125 -1.109375 -5.09375q0 -2.984375 1.109375 -5.093754q1.125 -2.125 3.03125 -3.25q1.90625 -1.125 4.328125 -1.125q2.421875 0 4.328125 1.125q1.921875 1.125 3.03125 3.25q1.109375 2.1093788 1.109375 5.093754zm-3.359375 0q0 -2.109375 -0.65625 -3.546875q-0.640625 -1.4375038 -1.796875 -2.1718788q-1.15625 -0.75 -2.65625 -0.75q-1.5 0 -2.65625 0.75q-1.140625 0.734375 -1.796875 2.1718788q-0.65625 1.4375 -0.65625 3.546875q0 2.09375 0.65625 3.53125q0.65625 1.4375 1.796875 2.1875q1.15625 0.734375 2.65625 0.734375q1.5 0 2.65625 -0.734375q1.15625 -0.75 1.796875 -2.1875q0.65625 -1.4375 0.65625 -3.53125zm22.28191 -3.0l-3.359375 0q-0.140625 -0.828125 -0.53125 -1.4687538q-0.390625 -0.640625 -0.96875 -1.09375q-0.5625 -0.453125 -1.296875 -0.671875q-0.734375 -0.234375 -1.578125 -0.234375q-1.5 0 -2.671875 0.75q-1.1562538 0.75 -1.8125038 2.2031288q-0.65625 1.4375 -0.65625 3.515625q0 2.109375 0.65625 3.5625q0.671875 1.4375 1.8281288 2.171875q1.15625 0.71875 2.640625 0.71875q0.828125 0 1.546875 -0.21875q0.734375 -0.21875 1.3125 -0.640625q0.578125 -0.4375 0.96875 -1.0625q0.40625 -0.640625 0.5625 -1.4375l3.359375 0.015625q-0.1875 1.3125 -0.8125 2.46875q-0.625 1.140625 -1.640625 2.015625q-1.0 0.875 -2.34375 1.375q-1.34375 0.484375 -3.0 0.484375q-2.421875 0 -4.328129 -1.125q-1.90625 -1.125 -3.015625 -3.234375q-1.09375 -2.125 -1.09375 -5.09375q0 -2.984375 1.109375 -5.093754q1.109375 -2.125 3.015625 -3.25q1.9062538 -1.125 4.312504 -1.125q1.546875 0 2.859375 0.4375q1.328125 0.421875 2.359375 1.265625q1.03125 0.828125 1.703125 2.03125q0.671875 1.1875 0.875 2.7343788z" fill-rule="nonzero"/><path fill="#000000" fill-opacity="0.0" d="m28.526396 23.346457l30.96063 0l0 50.078735l-30.96063 0z" fill-rule="evenodd"/><path fill="#000000" d="m55.807644 47.463333q0 2.96875 -1.109375 5.09375q-1.109375 2.109375 -3.03125 3.234375q-1.90625 1.125 -4.328125 1.125q-2.421875 0 -4.328125 -1.125q-1.90625 -1.125 -3.03125 -3.234375q-1.109375 -2.125 -1.109375 -5.09375q0 -2.984375 1.109375 -5.09375q1.125 -2.125 3.03125 -3.25q1.90625 -1.125 4.328125 -1.125q2.421875 0 4.328125 1.125q1.921875 1.125 3.03125 3.25q1.109375 2.109375 1.109375 5.09375zm-3.359375 0q0 -2.109375 -0.65625 -3.546875q-0.640625 -1.4375 -1.796875 -2.171875q-1.15625 -0.75 -2.65625 -0.75q-1.5 0 -2.65625 0.75q-1.140625 0.734375 -1.796875 2.171875q-0.65625 1.4375 -0.65625 3.546875q0 2.09375 0.65625 3.53125q0.65625 1.4375 1.796875 2.1875q1.15625 0.734375 2.65625 0.734375q1.5 0 2.65625 -0.734375q1.15625 -0.75 1.796875 -2.1875q0.65625 -1.4375 0.65625 -3.53125z" fill-rule="nonzero"/></g></svg>